<svg width="111" height="19" viewBox="0 0 111 19" fill="none" xmlns="http://www.w3.org/2000/svg">
<g clip-path="url(#clip0_12112_220)">
<path d="M25.8502 18.4401C25.8502 18.4401 25.8502 18.4326 25.8502 18.4293C27.0507 18.4101 28.2512 18.3859 29.4526 18.3717C31.0068 18.3534 32.5611 18.335 34.1162 18.3325C36.2311 18.3292 38.3468 18.3292 40.4617 18.3492C42.0627 18.3642 43.6629 18.4243 45.2638 18.4443C46.1574 18.4552 47.0517 18.4335 47.9452 18.4118C48.6794 18.3943 49.411 18.3701 50.1427 18.4702C50.6641 18.5419 51.1906 18.5886 51.7187 18.5227C51.984 18.4894 52.2493 18.4585 52.4887 18.3283C52.7131 18.2057 52.7682 18.043 52.6314 17.8328C52.4754 17.5933 52.3093 17.3572 52.1216 17.1428C51.8496 16.8325 51.4917 16.679 51.0763 16.6731C50.9294 16.6715 50.7826 16.6781 50.6366 16.684C50.3638 16.694 50.091 16.7157 49.8182 16.7149C48.1104 16.7073 46.4018 16.6973 44.694 16.6823C42.6058 16.664 40.5176 16.6364 38.4294 16.6181C36.0676 16.5972 33.7057 16.5805 31.3447 16.6598C29.9582 16.7065 28.5699 16.694 27.1817 16.7057C25.3938 16.7207 23.606 16.739 21.8173 16.7441C20.0294 16.7491 18.2407 16.7457 16.4529 16.7357C14.6984 16.7257 12.9439 16.6973 11.1894 16.6848C9.95465 16.6765 8.72075 16.6865 7.48602 16.679C6.3514 16.6715 5.21929 16.6039 4.08884 16.5105C3.71675 16.4796 3.3455 16.4429 2.97341 16.4053C2.88748 16.397 2.79988 16.3861 2.71812 16.3594C2.17917 16.1817 1.62855 16.1976 1.07375 16.2426C0.737539 16.2702 0.443039 16.4045 0.15855 16.5647C-0.0174833 16.664 -0.0416774 16.7724 0.0642761 16.9484C0.195258 17.1645 0.348765 17.3681 0.479747 17.5842C0.711677 17.9646 1.06291 18.154 1.48255 18.2483C2.01315 18.3684 2.55293 18.3867 3.09354 18.3959C4.01375 18.4126 4.9348 18.4243 5.85501 18.436C7.46934 18.4568 9.08367 18.4935 10.698 18.4927C12.7195 18.4927 14.7409 18.4527 16.7624 18.4451C19.3178 18.436 21.874 18.441 24.4294 18.4401C24.9033 18.4401 25.3771 18.4401 25.851 18.4401H25.8502ZM8.22186 6.97131C8.46463 7.81393 8.69322 8.62819 8.936 9.43744C9.05614 9.83873 9.19379 10.2358 9.34062 10.6288C9.5275 11.1277 9.86288 11.5081 10.3301 11.7659C10.6304 11.9311 10.9499 11.9937 11.2686 11.8368C11.4947 11.7259 11.7091 11.5874 11.916 11.4422C12.0162 11.3713 12.0971 11.2653 12.1655 11.1602C12.3632 10.8574 12.5059 10.5278 12.6235 10.1858C13.0331 8.9911 13.2901 7.76054 13.5037 6.51829C13.6338 5.75743 13.7706 4.99657 13.9083 4.23654C14.0026 3.71929 14.1077 3.2037 14.2011 2.68645C14.2437 2.44952 14.2111 2.21508 14.0727 2.01486C13.7356 1.52764 13.2534 1.33158 12.6744 1.35995C12.4792 1.36996 12.3615 1.50261 12.3449 1.6995C12.3365 1.7921 12.3374 1.88721 12.349 1.97898C12.3732 2.16002 12.3482 2.33605 12.319 2.51459C12.2406 3.00097 12.1713 3.48903 12.1021 3.97708C11.9861 4.79467 11.8735 5.6131 11.7609 6.4307C11.6566 7.19072 11.473 7.93407 11.2762 8.67491C11.151 9.14461 11.025 9.61347 10.8932 10.0815C10.8682 10.1716 10.8165 10.255 10.7773 10.3418C10.7606 10.3418 10.743 10.3401 10.7264 10.3401C10.5887 9.98055 10.4252 9.62932 10.3176 9.26057C9.91795 7.89903 9.56004 6.52664 9.31309 5.12839C9.21965 4.59862 8.82838 4.32748 8.29778 4.42175C7.84143 4.50268 7.49854 4.73961 7.2933 5.16176C6.81526 6.14454 6.33221 7.12398 5.86252 8.1101C5.407 9.06618 4.96483 10.0281 4.51599 10.9875C4.44507 11.1385 4.36916 11.2862 4.2924 11.4339C4.27405 11.4697 4.24235 11.4981 4.18728 11.5657C4.17727 11.4289 4.16809 11.3371 4.16559 11.2462C4.13973 10.1866 4.09968 9.12792 4.09218 8.06838C4.08133 6.54165 4.1147 5.01576 4.22065 3.49236C4.2632 2.87416 4.33912 2.2593 4.39585 1.64193C4.41004 1.4901 4.41588 1.33575 4.40837 1.18308C4.39919 0.985356 4.33745 0.794307 4.19062 0.659153C3.80602 0.30375 3.33882 0.122712 2.82157 0.0709866C2.67974 0.0568039 2.57796 0.135226 2.51872 0.259534C2.48535 0.330447 2.46283 0.409704 2.44865 0.487292C2.42362 0.624948 2.40943 0.764272 2.38858 0.901929C2.30348 1.44838 2.20754 1.99233 2.20253 2.5488C2.19753 3.11527 2.17 3.68091 2.15748 4.24739C2.12161 5.81333 2.07739 7.37844 2.05737 8.94438C2.04485 9.92466 2.12828 10.9016 2.29347 11.8694C2.35771 12.2465 2.45866 12.6144 2.68892 12.9272C3.05099 13.4203 3.55407 13.6222 4.15475 13.5646C4.51432 13.5296 4.81466 13.3435 5.04409 13.0716C5.21011 12.8747 5.36028 12.6569 5.47958 12.4283C6.39645 10.6672 7.30749 8.9035 8.14594 7.10312C8.16429 7.06308 8.18849 7.02637 8.22102 6.96881L8.22186 6.97131ZM22.8184 9.54172C22.8184 10.0498 22.8184 10.4027 22.8184 10.7556C22.8184 10.9508 22.9077 11.1035 23.0653 11.2111C23.3782 11.4255 23.7236 11.5215 24.1049 11.4914C24.3051 11.4756 24.4294 11.3705 24.4719 11.1819C24.5103 11.0142 24.5437 10.8424 24.5529 10.6705C24.5721 10.3184 24.567 9.9647 24.5862 9.6118C24.6063 9.25306 24.6346 8.89349 24.6747 8.53642C24.7539 7.83479 24.8232 7.13149 24.9341 6.43403C25.1052 5.36198 25.3096 4.29578 25.4948 3.22623C25.5765 2.75319 25.6524 2.27765 25.6249 1.79628C25.6132 1.59271 25.5699 1.38664 25.5098 1.19226C25.4447 0.980351 25.2845 0.856043 25.0568 0.819335C24.8599 0.787632 24.6647 0.741747 24.4686 0.704204C24.19 0.649976 23.9956 0.762604 23.9196 1.03541C23.8854 1.15638 23.8746 1.28403 23.8554 1.40917C23.7136 2.33105 23.5734 3.25293 23.4308 4.17397C23.3632 4.60863 23.2906 5.04162 23.223 5.47628C23.1947 5.65815 23.1029 5.78246 22.921 5.83502C22.1602 6.05694 21.4018 6.28887 20.6376 6.49994C20.2013 6.62091 19.7549 6.70434 19.3161 6.81697C19.0408 6.88788 19.0016 6.86369 19.0466 6.58921C19.2502 5.35364 19.4546 4.11891 19.6573 2.88334C19.7065 2.5805 19.7516 2.27682 19.7099 1.96897C19.6773 1.72786 19.5897 1.51012 19.3787 1.37747C19.0641 1.18058 18.7179 1.05877 18.3442 1.04292C18.073 1.03208 17.9304 1.13469 17.8703 1.4025C17.8286 1.58937 17.8036 1.78543 17.8102 1.97648C17.8286 2.46036 17.7543 2.9334 17.6834 3.40727C17.5833 4.07219 17.4732 4.73627 17.3806 5.40203C17.3238 5.81083 17.2938 6.22379 17.2504 6.63426C17.1762 7.33672 17.0986 8.03835 17.0277 8.74081C16.9492 9.51002 16.8725 10.2792 16.8041 11.0484C16.7724 11.3997 16.7599 11.7534 16.744 12.1063C16.7415 12.1697 16.749 12.2448 16.7816 12.2957C16.865 12.425 16.9668 12.5385 17.1236 12.5885C17.2504 12.6286 17.3714 12.6886 17.499 12.7253C17.6584 12.7704 17.8202 12.8179 17.9838 12.8338C18.2174 12.8563 18.3216 12.7887 18.3825 12.561C18.4418 12.3374 18.4793 12.1046 18.4993 11.8744C18.5627 11.1644 18.6036 10.4528 18.6729 9.74278C18.7062 9.39906 18.7838 9.06034 18.8372 8.71829C18.8631 8.5531 18.9607 8.45883 19.1142 8.41294C19.3945 8.32868 19.6732 8.23691 19.9568 8.16182C20.852 7.92656 21.7597 7.733 22.6132 7.36008C22.6674 7.33672 22.7275 7.32171 22.7859 7.3142C22.9344 7.29501 22.9861 7.33756 22.9869 7.48272C22.9869 7.56865 22.9769 7.65542 22.9694 7.74218C22.9143 8.39292 22.8593 9.04282 22.8167 9.54089L22.8184 9.54172ZM85.3651 12.6995C85.4995 12.692 85.5996 12.6936 85.6988 12.6803C86.3621 12.5952 86.9261 12.319 87.3299 11.7759C87.5877 11.4289 87.8329 11.0693 88.0548 10.698C89.2337 8.7283 89.9804 6.59255 90.4592 4.35668C90.6286 3.56745 90.7279 2.76821 90.8171 1.9673C90.8705 1.48592 90.7921 1.05293 90.4284 0.700033C90.2682 0.544857 90.1431 0.523166 89.9812 0.682513C89.8644 0.797644 89.7526 0.931128 89.6817 1.07796C89.5023 1.44922 89.3171 1.82214 89.1895 2.21175C89.0118 2.75486 88.885 3.31466 88.7365 3.86696C88.3969 5.12755 88.044 6.38398 87.5735 7.60369C87.1772 8.63236 86.705 9.62348 86.0743 10.532C85.8657 10.8332 85.5921 11.0668 85.2525 11.2103C84.9422 11.3413 84.681 11.2862 84.4524 11.0409C84.3582 10.94 84.2722 10.8232 84.2122 10.6997C84.1187 10.5095 84.0353 10.3109 83.9727 10.109C83.7383 9.34567 83.6624 8.55644 83.6148 7.76387C83.5589 6.82448 83.5731 5.88591 83.654 4.94818C83.6941 4.48349 83.7508 4.02213 83.926 3.58163C84.0069 3.3789 84.0553 3.16199 84.1079 2.94925C84.2021 2.56548 84.0912 2.25012 83.7625 2.0232C83.5598 1.88304 83.3537 1.74705 83.1409 1.62275C83.0792 1.58604 82.9891 1.57769 82.9149 1.58437C82.7255 1.60272 82.5736 1.70534 82.466 1.85551C82.3701 1.98983 82.2733 2.13249 82.2191 2.286C82.1198 2.56715 82.0355 2.85664 81.973 3.14864C81.8587 3.69092 81.8203 4.24322 81.7936 4.79551C81.741 5.88091 81.6951 6.96463 81.8453 8.04753C81.9813 9.02864 82.2141 9.98222 82.6003 10.8966C82.6896 11.1085 82.8047 11.3004 82.9541 11.4731C83.599 12.2198 84.3974 12.6603 85.3651 12.6978V12.6995ZM46.8173 6.37563C46.8114 6.22379 46.7956 6.09949 46.8048 5.97601C46.874 5.01576 47.0901 4.08137 47.3103 3.14697C47.3696 2.89586 47.5297 2.79324 47.7558 2.76321C47.9335 2.73901 48.1146 2.72733 48.2948 2.7265C49.3101 2.72233 50.3196 2.63055 51.3282 2.52544C51.4066 2.51709 51.4867 2.49874 51.5585 2.4662C51.6553 2.42198 51.7095 2.34273 51.7112 2.22843C51.717 1.8505 51.41 1.46507 51.0379 1.39666C50.5156 1.30071 49.9884 1.31907 49.4619 1.33909C48.8963 1.36078 48.3315 1.44671 47.7642 1.36662C47.5014 1.32991 47.4972 1.33575 47.4972 1.06294C47.4972 0.778455 47.3729 0.571554 47.1059 0.472275C46.9199 0.40303 46.7255 0.348802 46.5311 0.311259C46.3192 0.270379 46.2007 0.33295 46.1115 0.530674C46.0489 0.66833 46.0072 0.818501 45.978 0.967002C45.9379 1.17307 45.852 1.32074 45.6376 1.39082C45.5275 1.42669 45.4232 1.49927 45.3356 1.57686C45.2271 1.6728 45.2296 1.76457 45.3256 1.87303C45.3781 1.93226 45.4399 1.98566 45.5041 2.03321C45.6676 2.15335 45.716 2.30268 45.6793 2.50458C45.5133 3.42229 45.3531 4.34083 45.1988 5.2602C44.9602 6.67848 44.6857 8.09258 44.553 9.5267C44.483 10.2851 44.4771 11.0426 44.5722 11.8009C44.6874 12.722 45.3331 13.2568 46.1365 13.4603C46.1816 13.472 46.2291 13.4804 46.275 13.4795C46.5211 13.4753 46.7689 13.4795 47.0142 13.4603C47.7049 13.4036 48.3957 13.3352 49.0865 13.2735C49.3785 13.2476 49.6738 13.2409 49.9633 13.1975C50.1853 13.1642 50.4088 13.1083 50.6157 13.0232C50.8335 12.9331 50.8819 12.7504 50.7693 12.5435C50.6157 12.2623 50.398 12.0396 50.1093 11.8936C49.97 11.8235 49.824 11.8051 49.6638 11.8318C49.3285 11.8869 48.9914 11.9436 48.6527 11.9603C47.9469 11.9945 47.2394 12.0003 46.5328 12.0229C46.4252 12.0262 46.3492 11.9878 46.3017 11.8994C46.2641 11.8293 46.2324 11.7542 46.2141 11.6783C46.1407 11.378 46.1332 11.0718 46.1482 10.7639C46.1907 9.91047 46.3225 9.06869 46.4769 8.2294C46.5153 8.0225 46.6271 7.91071 46.8131 7.85314C46.889 7.82978 46.9683 7.80809 47.0467 7.80225C47.2928 7.78556 47.5389 7.76471 47.785 7.76804C48.2047 7.77305 48.6252 7.80225 49.0448 7.80892C49.4795 7.81643 49.9116 7.77555 50.3354 7.67961C50.4572 7.65208 50.5782 7.60369 50.6867 7.54279C50.8176 7.46937 50.8619 7.35424 50.8076 7.21742C50.6766 6.88621 50.4914 6.59004 50.1193 6.49243C49.8824 6.42986 49.6371 6.38564 49.3927 6.36562C48.9872 6.33225 48.5801 6.31723 48.173 6.30889C47.8401 6.30222 47.5072 6.31223 47.1743 6.32307C47.0701 6.32641 46.9658 6.35311 46.8173 6.37563ZM74.5387 3.04603C74.5387 3.10776 74.5429 3.1403 74.5387 3.172C74.4478 3.76434 74.3685 4.35918 74.2617 4.94818C74.0406 6.16039 73.752 7.35925 73.5868 8.58147C73.475 9.40907 73.4133 10.2392 73.4908 11.0735C73.5142 11.3237 73.5117 11.5815 73.6368 11.8135C73.8279 12.1672 74.0915 12.4534 74.4352 12.6636C74.5195 12.7153 74.6138 12.7554 74.7089 12.7829C74.9642 12.8563 75.1644 12.7645 75.2595 12.5193C75.3012 12.4108 75.3204 12.2873 75.3213 12.1705C75.3229 11.8911 75.2887 11.6099 75.3012 11.3312C75.3296 10.6855 75.3755 10.0406 75.4164 9.39572C75.428 9.20968 75.4339 9.02197 75.4664 8.83842C75.5815 8.19603 75.7175 7.55697 75.826 6.91374C76.0479 5.60059 76.2606 4.28493 76.4667 2.96927C76.4901 2.82077 76.5526 2.72983 76.6803 2.69062C76.858 2.63639 77.0399 2.58884 77.2234 2.56298C77.8675 2.47288 78.5132 2.47621 79.1598 2.53294C79.2983 2.54546 79.4418 2.54379 79.5777 2.51793C79.6987 2.49457 79.8163 2.43867 79.9248 2.3786C80.0341 2.31853 80.0675 2.22426 80.0299 2.09078C79.8439 1.42919 79.3925 1.06211 78.741 0.921951C78.3055 0.828512 77.8641 0.870226 77.4245 0.898591C77.1784 0.914443 76.9331 0.950317 76.687 0.956991C76.4851 0.961997 76.42 0.886911 76.4091 0.698364C76.395 0.448915 76.3224 0.357979 76.0821 0.291236C75.9344 0.250357 75.7859 0.211146 75.6374 0.175272C75.1944 0.0701524 74.804 0.349636 74.7564 0.803484C74.7256 1.09882 74.6463 1.18391 74.3552 1.23397C74.3093 1.24148 74.2626 1.24315 74.2158 1.24732C73.6252 1.30739 73.0353 1.37163 72.4447 1.42586C72 1.46674 71.5553 1.49844 71.109 1.41084C70.9012 1.36996 70.6852 1.35828 70.4724 1.36245C70.1829 1.36829 70.0386 1.54766 70.0653 1.83632C70.0728 1.91474 70.0903 1.99483 70.1145 2.06992C70.2822 2.58801 70.6276 2.92506 71.164 3.03435C71.8223 3.16866 72.4847 3.20537 73.1496 3.06188C73.4817 2.99013 73.8179 2.92506 74.1608 2.95926C74.2892 2.97261 74.4152 3.01516 74.5404 3.04436L74.5387 3.04603ZM97.609 0.760935V0.791804C97.5423 0.791804 97.4755 0.790135 97.4088 0.791804C96.5687 0.821838 95.7285 0.851037 94.8893 0.883574C94.5948 0.895254 94.322 0.977014 94.105 1.18642C93.9157 1.36829 93.914 1.5827 94.105 1.7629C94.261 1.91141 94.4379 2.02403 94.6648 2.04406C94.85 2.06074 94.9093 2.13833 94.8993 2.32354C94.8901 2.48289 94.8717 2.64223 94.8509 2.80075C94.7433 3.59915 94.6148 4.39589 94.5322 5.19763C94.498 5.52801 94.4254 5.80332 94.1576 6.01439C94.0383 6.10783 94.0308 6.24382 94.0892 6.37897C94.1317 6.47658 94.176 6.57419 94.2302 6.66513C94.2752 6.74021 94.2811 6.81113 94.2602 6.89289C94.0091 7.8498 93.9107 8.83175 93.7838 9.80953C93.6971 10.4761 93.6253 11.146 93.4618 11.8009C93.2716 12.5626 94.0108 13.2 94.7091 13.0574C95.0595 12.9865 95.1245 12.9381 95.1788 12.5893C95.2455 12.1555 95.3047 11.7184 95.3348 11.2804C95.404 10.2884 95.5475 9.30646 95.7152 8.32868C95.7644 8.04252 95.8595 7.76137 95.9621 7.48856C96.0381 7.28416 96.1957 7.16987 96.4352 7.14984C96.9666 7.10563 97.4981 7.04973 98.0253 6.97381C98.6252 6.88705 99.2225 6.77859 99.819 6.6693C100.093 6.61924 100.367 6.555 100.637 6.48075C100.763 6.44571 100.888 6.38731 100.998 6.31557C101.175 6.20127 101.187 6.05861 101.056 5.89259C101.031 5.86172 101.004 5.83168 100.974 5.80582C100.774 5.63312 100.555 5.49964 100.293 5.44458C99.9909 5.38117 99.6855 5.34446 99.3785 5.38368C98.797 5.45876 98.2172 5.55137 97.6349 5.61894C97.2511 5.66316 96.864 5.68235 96.4786 5.70237C96.2992 5.71155 96.2708 5.68485 96.25 5.50214C96.235 5.37116 96.2375 5.23601 96.2475 5.10419C96.3067 4.33165 96.4761 3.57663 96.6362 2.82077C96.7288 2.38611 96.8974 2.27432 97.317 2.28016C98.0045 2.28933 98.6919 2.29434 99.3785 2.28183C99.8983 2.27265 100.417 2.2326 100.937 2.20591C100.964 2.20424 100.99 2.20257 101.017 2.19923C101.297 2.15919 101.386 2.03071 101.327 1.75706C101.281 1.54432 101.177 1.35995 101.054 1.18391C100.946 1.02957 100.808 0.91778 100.621 0.886077C100.339 0.838523 100.055 0.77345 99.7715 0.766775C99.0515 0.75009 98.3307 0.760935 97.6107 0.760935H97.609ZM37.7153 2.70063C37.6861 2.83996 37.6652 2.93757 37.646 3.03518C37.4458 4.0505 37.3449 5.07833 37.2556 6.107C37.1672 7.11564 37.1071 8.12678 37.0362 9.13793C37.002 9.62932 36.9878 10.1224 36.8969 10.6096C36.8652 10.7773 36.8785 10.955 36.8852 11.1277C36.8927 11.3112 36.9569 11.4789 37.0662 11.6283C37.2614 11.8952 37.5 12.1163 37.7879 12.2815C37.868 12.3274 37.9547 12.3683 38.044 12.3925C38.3085 12.4642 38.4787 12.3666 38.532 12.0996C38.5621 11.9511 38.5629 11.7959 38.5663 11.6433C38.5746 11.277 38.5537 10.9091 38.5846 10.5454C38.6572 9.70274 38.7648 8.86262 38.8382 8.02C38.9609 6.60589 39.0943 5.19346 39.2912 3.7877C39.3388 3.44565 39.3997 3.10526 39.4564 2.75236C39.5832 2.74318 39.6959 2.7265 39.8077 2.729C40.1138 2.73651 40.42 2.76487 40.7262 2.7607C41.286 2.75319 41.8466 2.7265 42.4064 2.71148C42.5866 2.70647 42.7669 2.72233 42.9462 2.71398C43.2566 2.6998 43.3775 2.56548 43.3775 2.2593C43.3775 1.75957 43.0205 1.28737 42.5107 1.13302C42.3464 1.08297 42.172 1.04793 42.001 1.04292C41.3811 1.02373 40.7604 0.998705 40.1414 1.01539C39.3221 1.03792 38.5037 1.10299 37.6836 1.1397C37.198 1.16139 36.7108 1.17974 36.2244 1.16806C35.698 1.15555 35.1732 1.10299 34.6468 1.07296C34.2989 1.05293 33.9719 1.1422 33.6607 1.28987C33.4429 1.39248 33.4154 1.45839 33.4813 1.68365C33.5172 1.80462 33.5572 1.92475 33.599 2.04406C33.7049 2.34857 33.9126 2.56048 34.223 2.6414C34.4599 2.70314 34.7077 2.7557 34.9497 2.75486C35.6963 2.75236 36.443 2.72149 37.1897 2.70314C37.3557 2.69897 37.5209 2.70314 37.717 2.70314L37.7153 2.70063ZM106.134 6.68765C106.134 6.60089 106.125 6.50161 106.135 6.404C106.235 5.40286 106.335 4.40256 106.442 3.40226C106.487 2.97094 106.696 2.77989 107.128 2.74068C107.175 2.73651 107.222 2.73484 107.268 2.73484C107.701 2.73484 108.135 2.73651 108.568 2.73401C108.989 2.7315 109.408 2.72817 109.829 2.71815C109.975 2.71482 110.122 2.6973 110.266 2.67477C110.432 2.64807 110.484 2.59134 110.494 2.42282C110.512 2.1425 110.446 1.88387 110.203 1.71785C110.024 1.59521 109.825 1.49677 109.628 1.4025C109.412 1.29988 109.172 1.31657 108.939 1.30155C108.006 1.23981 107.072 1.26067 106.141 1.35077C105.703 1.39332 105.268 1.45088 104.826 1.4075C104.695 1.39499 104.56 1.42168 104.427 1.42836C104.15 1.44254 103.975 1.58771 103.864 1.83716C103.792 2.00067 103.803 2.14083 103.901 2.28767C104.024 2.46954 104.191 2.57883 104.4 2.62722C104.57 2.66643 104.668 2.77238 104.685 2.94508C104.697 3.07022 104.713 3.1987 104.701 3.32301C104.636 4.04633 104.566 4.76881 104.492 5.4913C104.424 6.14704 104.337 6.80112 104.28 7.45853C104.174 8.67991 104.086 9.90296 103.984 11.1243C103.946 11.5749 103.938 12.0287 103.809 12.4692C103.778 12.5727 103.813 12.6945 103.804 12.8063C103.791 12.9806 103.892 13.0615 104.036 13.1099C104.176 13.1567 104.318 13.1909 104.456 13.2417C104.718 13.3369 104.952 13.2893 105.128 13.0816C105.25 12.9364 105.35 12.7654 105.429 12.5918C105.586 12.244 105.67 11.8702 105.709 11.4923C105.789 10.7172 105.848 9.94051 105.918 9.16379C105.94 8.92519 105.956 8.68575 105.999 8.45048C106.04 8.22857 106.193 8.09175 106.413 8.03752C106.484 8.02 106.557 8.00498 106.629 7.99831C106.875 7.97578 107.121 7.95659 107.367 7.93657C107.898 7.89235 108.428 7.83145 108.964 7.85064C109.235 7.86065 109.511 7.83562 109.779 7.79224C110.085 7.74302 110.194 7.4969 110.046 7.22493C109.996 7.13566 109.914 7.05891 109.833 6.99383C109.739 6.91958 109.632 6.86369 109.528 6.80278C109.346 6.696 109.152 6.63593 108.939 6.63927C108.632 6.64344 108.324 6.64093 108.018 6.64677C107.399 6.65845 106.779 6.67431 106.131 6.68849L106.134 6.68765ZM31.2087 3.09024C31.2146 2.9968 31.2263 2.9042 31.2246 2.81076C31.2188 2.47204 31.2188 2.13249 31.1971 1.79461C31.1837 1.5852 31.0786 1.41501 30.8884 1.30822C30.568 1.12885 30.2235 1.03041 29.8555 1.04793C29.4818 1.06628 29.3291 1.26401 29.3391 1.63526C29.3533 2.16086 29.36 2.68812 29.3425 3.21288C29.3216 3.84526 29.2749 4.47681 29.2332 5.10836C29.194 5.71322 29.1698 6.32057 29.098 6.92209C28.9637 8.04669 28.8661 9.17464 28.7877 10.3043C28.7551 10.7689 28.7284 11.2345 28.7051 11.7C28.6984 11.826 28.7009 11.9545 28.7184 12.0788C28.7693 12.4267 28.9537 12.6986 29.2791 12.8246C29.5235 12.9197 29.7955 12.9498 30.0583 12.9923C30.2143 13.0182 30.276 12.9706 30.3211 12.8121C30.3594 12.6786 30.3886 12.5401 30.3987 12.4016C30.4312 11.9636 30.4404 11.5231 30.4804 11.086C30.5447 10.3902 30.6273 9.69523 30.7032 9.00027C30.7758 8.33202 30.8542 7.66376 30.9226 6.99467C30.9743 6.48492 31.001 5.97184 31.0619 5.46293C31.1562 4.67454 31.2096 3.88448 31.2079 3.09108L31.2087 3.09024Z" fill="#475467"/>
<path d="M66.476 18.8007C66.4184 18.7907 66.3608 18.7732 66.3033 18.7715C65.4698 18.7532 64.6356 18.7456 63.8029 18.719C63.1964 18.6998 62.5907 18.6505 61.9842 18.6263C61.6855 18.6147 61.3852 18.6238 61.0857 18.6322C60.611 18.6464 60.1797 18.5229 59.8426 18.185C59.6474 17.989 59.4931 17.7504 59.3312 17.5234C59.2378 17.3924 59.2369 17.254 59.3471 17.1188C59.4397 17.0053 59.5173 16.8802 59.6024 16.7609C59.7475 16.5598 59.9494 16.4781 60.1914 16.4848C60.2648 16.4873 60.3382 16.4923 60.4108 16.5031C61.0698 16.6024 61.7289 16.7033 62.3872 16.8034C63.0813 16.9094 63.7804 16.9369 64.4812 16.9528C64.8667 16.962 65.2513 17.0237 65.6375 17.0362C66.3709 17.0596 67.1042 17.0779 67.8375 17.0746C69.3718 17.0679 70.906 17.0446 72.4402 17.0295C74.1013 17.0128 75.7623 16.9987 77.4234 16.9828C78.4971 16.9728 79.5717 16.967 80.6454 16.9478C82.0595 16.9227 83.4727 16.881 84.8868 16.8543C86.2743 16.8285 87.6617 16.8085 89.0491 16.7951C91.2107 16.7734 93.3715 16.7651 95.5331 16.7417C97.3009 16.7225 99.0679 16.6958 100.836 16.6616C102.023 16.6383 103.21 16.6358 104.397 16.6841C105.31 16.7217 106.224 16.7709 107.137 16.7909C107.704 16.8034 108.27 16.7709 108.837 16.7592C109.239 16.7509 109.638 16.7684 110.027 16.8794C110.148 16.9136 110.267 16.9603 110.38 17.0162C110.612 17.1313 110.772 17.314 110.842 17.566C110.888 17.7328 110.921 17.9022 110.961 18.0707C110.972 18.1141 110.988 18.1566 111.002 18.2V18.5604C110.931 18.648 110.839 18.6897 110.725 18.6906C110.672 18.6906 110.619 18.7014 110.566 18.7064C110.099 18.7532 109.637 18.7532 109.176 18.6314C108.947 18.5704 108.703 18.5429 108.464 18.5371C107.165 18.502 105.864 18.4678 104.564 18.4528C103.791 18.4436 103.017 18.4812 102.244 18.4762C100.797 18.467 99.3499 18.4295 97.9024 18.4278C96.475 18.4261 95.0484 18.4528 93.6209 18.4703C91.7872 18.4929 89.9534 18.5171 88.1188 18.5438C86.4453 18.5679 84.7717 18.5971 83.0973 18.623C81.3236 18.6505 79.55 18.6797 77.7755 18.7023C76.1486 18.7231 74.5209 18.7373 72.8933 18.7507C71.6994 18.7607 70.5055 18.7632 69.3117 18.7715C69.2475 18.7715 69.1832 18.7907 69.119 18.8007H66.476Z" fill="#475467"/>
<path d="M66.116 0C66.207 0.015017 66.2987 0.0258627 66.3897 0.0442168C67.2665 0.225255 67.9364 0.677435 68.3002 1.52006C68.3494 1.63435 68.3803 1.76116 68.3928 1.88547C68.4095 2.05316 68.3377 2.13409 68.1734 2.16162C67.7671 2.23003 67.3967 2.16746 67.0654 1.89632C66.5574 1.48085 66.0168 1.44831 65.452 1.78703C64.9464 2.0907 64.5776 2.52787 64.3032 3.04011C63.8535 3.88023 63.6966 4.76957 63.916 5.7073C63.9995 6.06271 64.163 6.38307 64.4049 6.65838C64.772 7.07469 65.0882 7.5277 65.3927 7.98989C65.5396 8.21181 65.6956 8.42872 65.8557 8.64146C66.1703 9.0586 66.4498 9.4941 66.6083 9.998C66.8419 10.7388 66.7342 11.4255 66.2504 12.0336C65.4878 12.9939 64.505 13.6104 63.2912 13.8257C62.7214 13.9266 62.144 13.9191 61.5851 13.7581C61.1579 13.6355 60.785 13.3977 60.4513 13.104C60.3186 12.9872 60.2335 12.8346 60.206 12.6568C60.1968 12.5984 60.1927 12.5367 60.2002 12.4783C60.2302 12.2564 60.3895 12.1388 60.6106 12.1805C60.8592 12.228 61.1037 12.3014 61.354 12.3365C62.4619 12.4917 63.3971 12.1655 64.1146 11.2936C64.3941 10.9533 64.5493 10.5536 64.4742 10.1048C64.4441 9.92458 64.3832 9.73854 64.2881 9.5842C64.1004 9.27885 63.8877 8.98685 63.6683 8.70237C63.4322 8.39619 63.1727 8.10836 62.9308 7.80718C62.7806 7.62031 62.6413 7.42425 62.5019 7.22903C61.9471 6.44981 61.7427 5.57966 61.8395 4.63525C61.9647 3.40803 62.4193 2.31846 63.2161 1.37155C63.8143 0.659915 64.5618 0.209404 65.4837 0.0583995C65.6138 0.0367083 65.7448 0.0191884 65.8749 0C65.955 0 66.0351 0 66.1152 0L66.116 0Z" fill="#475467"/>
<path d="M69.1182 18.8007C69.1824 18.7907 69.2466 18.7724 69.3109 18.7715C70.5047 18.764 71.6986 18.7607 72.8924 18.7507C74.5201 18.7373 76.147 18.7231 77.7746 18.7023C79.5483 18.6798 81.322 18.6506 83.0965 18.623C84.7701 18.5972 86.4436 18.568 88.118 18.5438C89.9518 18.5171 91.7855 18.4929 93.6201 18.4704C95.0476 18.4528 96.4742 18.4261 97.9016 18.4278C99.3491 18.4295 100.796 18.467 102.243 18.4762C103.017 18.4812 103.79 18.4437 104.563 18.4528C105.864 18.4679 107.164 18.5021 108.464 18.5371C108.702 18.5438 108.945 18.5713 109.175 18.6314C109.636 18.7532 110.098 18.7532 110.565 18.7065C110.619 18.7015 110.671 18.6906 110.724 18.6906C110.838 18.6906 110.93 18.6489 111.001 18.5605V18.8007H69.1198H69.1182Z" fill="#475467"/>
<path d="M25.8504 18.4391C25.3765 18.4391 24.9027 18.4391 24.4288 18.4391C21.8734 18.4399 19.3172 18.4341 16.7618 18.4441C14.7403 18.4516 12.7188 18.4908 10.6974 18.4917C9.08305 18.4917 7.46872 18.4558 5.85439 18.4349C4.93418 18.4233 4.01314 18.4116 3.09293 18.3949C2.55232 18.3849 2.01337 18.3665 1.48194 18.2472C1.06146 18.1521 0.710228 17.9627 0.479133 17.5831C0.347317 17.3671 0.194644 17.1643 0.0636617 16.9474C-0.043126 16.7722 -0.0180977 16.6629 0.157935 16.5636C0.442424 16.4035 0.737759 16.2683 1.07314 16.2416C1.62794 16.1966 2.17856 16.1807 2.7175 16.3584C2.79926 16.3851 2.88686 16.396 2.97279 16.4043C3.34405 16.441 3.71614 16.4785 4.08822 16.5094C5.21867 16.6029 6.35079 16.6713 7.48541 16.6779C8.72014 16.6854 9.95404 16.6754 11.1888 16.6838C12.9433 16.6963 14.6978 16.7247 16.4522 16.7347C18.2401 16.7455 20.0288 16.748 21.8167 16.743C23.6045 16.738 25.3932 16.7197 27.1811 16.7046C28.5685 16.693 29.9576 16.7055 31.3441 16.6588C33.706 16.5795 36.067 16.5962 38.4288 16.617C40.517 16.6354 42.6052 16.6629 44.6934 16.6813C46.4012 16.6963 48.1098 16.7063 49.8176 16.7138C50.0904 16.7146 50.3632 16.693 50.636 16.6829C50.7828 16.6779 50.9297 16.6704 51.0757 16.6721C51.4911 16.6779 51.8482 16.8314 52.121 17.1418C52.3096 17.3562 52.4747 17.5923 52.6308 17.8317C52.7676 18.0412 52.7125 18.2047 52.4881 18.3273C52.2487 18.4575 51.9825 18.4883 51.7181 18.5217C51.19 18.5884 50.6635 18.5409 50.1421 18.4691C49.4104 18.369 48.6788 18.3932 47.9446 18.4107C47.0511 18.4316 46.1568 18.4541 45.2632 18.4433C43.6623 18.4233 42.0621 18.3632 40.4611 18.3482C38.3462 18.3281 36.2313 18.3281 34.1156 18.3315C32.5613 18.334 31.0062 18.3523 29.452 18.3707C28.2515 18.3849 27.0509 18.4091 25.8496 18.4283C25.8496 18.4316 25.8496 18.4358 25.8496 18.4391H25.8504Z" fill="#475467"/>
<path d="M8.2225 6.97076C8.1908 7.02832 8.1666 7.06503 8.14742 7.10508C7.30896 8.90545 6.39793 10.6691 5.48106 12.4303C5.36176 12.6589 5.21159 12.8766 5.04556 13.0735C4.81614 13.3455 4.5158 13.5315 4.15622 13.5666C3.55638 13.625 3.05247 13.4222 2.69039 12.9292C2.46097 12.6163 2.36002 12.2484 2.29495 11.8713C2.12976 10.9035 2.04633 9.92661 2.05885 8.94633C2.07803 7.38039 2.12308 5.81528 2.15896 4.24934C2.17231 3.68287 2.19984 3.11722 2.20401 2.55075C2.20902 1.99428 2.30496 1.45033 2.39005 0.903882C2.41175 0.765391 2.42509 0.626067 2.45012 0.489245C2.46431 0.411657 2.486 0.333235 2.5202 0.261487C2.5786 0.137179 2.68122 0.058757 2.82305 0.0729398C3.3403 0.125499 3.80666 0.306538 4.1921 0.661107C4.33893 0.79626 4.39983 0.98731 4.40984 1.18503C4.41735 1.33771 4.41151 1.49205 4.39733 1.64389C4.3406 2.26125 4.26551 2.87612 4.22213 3.49432C4.11618 5.01771 4.08281 6.54361 4.09365 8.07034C4.10116 9.12987 4.14037 10.1886 4.16707 11.2481C4.16957 11.339 4.17958 11.4308 4.18876 11.5676C4.24299 11.5001 4.27553 11.4709 4.29388 11.4358C4.37063 11.2882 4.44655 11.1397 4.51747 10.9895C4.96631 10.0309 5.40848 9.06814 5.86399 8.11205C6.33453 7.12594 6.81757 6.14566 7.29478 5.16371C7.50001 4.74157 7.8429 4.50463 8.29925 4.42371C8.82986 4.32943 9.2203 4.60057 9.31457 5.13034C9.56152 6.52943 9.91942 7.90181 10.319 9.26252C10.4275 9.63044 10.5902 9.98251 10.7278 10.3421C10.7445 10.3421 10.762 10.3437 10.7787 10.3437C10.8179 10.257 10.8697 10.1744 10.8947 10.0835C11.0265 9.61542 11.1525 9.14656 11.2776 8.67686C11.4745 7.93685 11.6572 7.19351 11.7623 6.43265C11.875 5.61422 11.9884 4.79663 12.1036 3.97903C12.1728 3.49098 12.2421 3.00293 12.3205 2.51654C12.3488 2.33801 12.3739 2.16281 12.3505 1.98094C12.3388 1.88917 12.338 1.79406 12.3463 1.70145C12.363 1.50456 12.4807 1.37108 12.6759 1.3619C13.2549 1.3327 13.7371 1.52959 14.0741 2.01681C14.2126 2.21704 14.2452 2.45064 14.2026 2.6884C14.1092 3.20566 14.0041 3.72124 13.9098 4.2385C13.7713 4.99852 13.6353 5.75855 13.5052 6.52025C13.2924 7.76249 13.0346 8.99305 12.625 10.1877C12.5082 10.5298 12.3647 10.8593 12.167 11.1622C12.0986 11.2665 12.0176 11.3732 11.9175 11.4442C11.7115 11.5893 11.4962 11.7278 11.2701 11.8388C10.9506 11.9956 10.6311 11.9331 10.3316 11.7679C9.86353 11.5101 9.52898 11.1296 9.3421 10.6307C9.19444 10.2386 9.05761 9.84068 8.93748 9.43939C8.6947 8.63014 8.46694 7.81588 8.22333 6.97326L8.2225 6.97076Z" fill="#475467"/>
<path d="M22.8195 9.54036C22.862 9.04313 22.9171 8.39239 22.9722 7.74165C22.9797 7.65572 22.9905 7.56896 22.9897 7.48219C22.988 7.3362 22.9371 7.29365 22.7886 7.31367C22.7302 7.32118 22.6693 7.3362 22.6159 7.35955C21.7625 7.73164 20.8548 7.92603 19.9596 8.1613C19.6759 8.23555 19.3981 8.32815 19.117 8.41241C18.9635 8.4583 18.8658 8.55257 18.84 8.71776C18.7866 9.05982 18.709 9.39853 18.6756 9.74226C18.6072 10.4514 18.5655 11.1639 18.5021 11.8738C18.4812 12.1049 18.4445 12.3369 18.3853 12.5605C18.3252 12.7882 18.2209 12.8558 17.9865 12.8333C17.823 12.8174 17.6611 12.7707 17.5018 12.7248C17.3742 12.6881 17.2532 12.6289 17.1264 12.588C16.9695 12.5379 16.8677 12.4245 16.7843 12.2952C16.7518 12.2443 16.7434 12.1692 16.7468 12.1058C16.7626 11.7529 16.7751 11.4 16.8068 11.0479C16.8753 10.2779 16.952 9.50866 17.0304 8.74029C17.1013 8.03782 17.1789 7.33536 17.2532 6.63373C17.2966 6.22327 17.3266 5.8103 17.3833 5.4015C17.4759 4.73491 17.5861 4.07166 17.6862 3.40674C17.7571 2.93287 17.8313 2.459 17.813 1.97595C17.8055 1.78574 17.8313 1.58885 17.8731 1.40197C17.9331 1.13416 18.0749 1.03071 18.3469 1.04239C18.7207 1.05825 19.0669 1.18005 19.3814 1.37694C19.5925 1.50876 19.6801 1.72734 19.7126 1.96844C19.7544 2.27713 19.7101 2.5808 19.6601 2.88281C19.4573 4.11838 19.253 5.35395 19.0494 6.58868C19.0043 6.86316 19.0435 6.88735 19.3189 6.81644C19.7577 6.70381 20.204 6.62038 20.6404 6.49941C21.4046 6.28751 22.1629 6.05641 22.9238 5.83449C23.1057 5.7811 23.1966 5.65679 23.2258 5.47575C23.2942 5.04193 23.3668 4.6081 23.4335 4.17344C23.5762 3.2524 23.7163 2.33052 23.8582 1.40864C23.8774 1.2835 23.889 1.15586 23.9224 1.03489C23.9992 0.762076 24.1927 0.649448 24.4714 0.703677C24.6674 0.742053 24.8626 0.787104 25.0595 0.818807C25.2865 0.855515 25.4466 0.979823 25.5125 1.19173C25.5726 1.38695 25.616 1.59302 25.6277 1.79575C25.6552 2.27713 25.5793 2.7535 25.4975 3.2257C25.3123 4.29525 25.1079 5.36146 24.9369 6.43351C24.8259 7.13013 24.7567 7.83426 24.6774 8.53589C24.6374 8.89296 24.6082 9.25253 24.589 9.61127C24.5698 9.96334 24.5757 10.3171 24.5556 10.67C24.5465 10.841 24.5131 11.0129 24.4747 11.1814C24.4313 11.3699 24.3078 11.4751 24.1076 11.4909C23.7264 11.5209 23.381 11.425 23.0681 11.2106C22.9104 11.1021 22.8212 10.9503 22.8212 10.7551C22.8212 10.4022 22.8212 10.0493 22.8212 9.54119L22.8195 9.54036Z" fill="#475467"/>
<path d="M85.3662 12.6982C84.3985 12.6606 83.6001 12.221 82.9552 11.4734C82.8058 11.3008 82.6907 11.1089 82.6014 10.897C82.2151 9.98259 81.9824 9.02901 81.8464 8.0479C81.6971 6.96501 81.7429 5.88044 81.7947 4.79588C81.8214 4.24275 81.8597 3.69046 81.974 3.14901C82.0358 2.85702 82.12 2.56836 82.2202 2.28637C82.2744 2.13286 82.3712 1.9902 82.4671 1.85588C82.5747 1.70488 82.7266 1.6031 82.9159 1.58474C82.9902 1.57723 83.0803 1.58641 83.142 1.62312C83.3539 1.74826 83.5608 1.88425 83.7636 2.02357C84.0923 2.2505 84.2032 2.56502 84.109 2.94962C84.0564 3.16236 84.008 3.37927 83.9271 3.582C83.7519 4.0225 83.6952 4.48303 83.6551 4.94855C83.5742 5.88628 83.56 6.82485 83.6159 7.76425C83.6635 8.55681 83.7394 9.34604 83.9738 10.1094C84.0364 10.3121 84.1198 10.5099 84.2132 10.7001C84.2741 10.8235 84.3592 10.9395 84.4535 11.0413C84.6821 11.2866 84.9432 11.3416 85.2536 11.2107C85.594 11.0672 85.8668 10.8336 86.0754 10.5324C86.7052 9.62302 87.1774 8.63273 87.5746 7.60406C88.0451 6.38435 88.398 5.12792 88.7375 3.86733C88.886 3.31504 89.0128 2.75523 89.1905 2.21212C89.3182 1.82168 89.5034 1.44875 89.6828 1.07833C89.7537 0.932335 89.8655 0.79885 89.9823 0.682885C90.1441 0.523538 90.2701 0.545229 90.4295 0.700405C90.7932 1.05331 90.8716 1.48713 90.8182 1.96767C90.729 2.76858 90.6289 3.56782 90.4603 4.35705C89.9815 6.59292 89.2348 8.72784 88.0559 10.6984C87.834 11.0697 87.5896 11.4292 87.3309 11.7763C86.9272 12.3194 86.3632 12.5956 85.6999 12.6807C85.6006 12.6932 85.5005 12.6923 85.3662 12.6998V12.6982Z" fill="#475467"/>
<path d="M46.8177 6.3747C46.9662 6.35217 47.0705 6.32548 47.1747 6.32214C47.5076 6.31213 47.8405 6.30128 48.1734 6.30796C48.5805 6.3163 48.9876 6.33132 49.3931 6.36469C49.6375 6.38471 49.8828 6.42893 50.1197 6.4915C50.4918 6.58911 50.6762 6.88528 50.808 7.21649C50.8622 7.35331 50.818 7.46844 50.687 7.54185C50.5786 7.60276 50.4576 7.65115 50.3358 7.67868C49.9112 7.77462 49.479 7.81466 49.0452 7.80799C48.6247 7.80132 48.2051 7.77212 47.7854 7.76711C47.5393 7.76377 47.2932 7.78463 47.0471 7.80132C46.9687 7.80632 46.8894 7.82885 46.8135 7.85221C46.6274 7.90977 46.5157 8.02073 46.4773 8.22847C46.3221 9.06775 46.1911 9.90954 46.1486 10.763C46.1327 11.07 46.1402 11.3762 46.2145 11.6774C46.2328 11.7541 46.2654 11.8292 46.3021 11.8985C46.3496 11.9877 46.4256 12.0253 46.5332 12.0219C47.2398 11.9994 47.9473 11.9936 48.6531 11.9594C48.9918 11.9427 49.3288 11.8859 49.6642 11.8309C49.8244 11.8042 49.9712 11.8225 50.1097 11.8926C50.3976 12.0386 50.6161 12.2614 50.7696 12.5425C50.8831 12.7494 50.8347 12.9321 50.6161 13.0222C50.4092 13.1073 50.1856 13.1632 49.9637 13.1966C49.6742 13.24 49.3789 13.2467 49.0869 13.2725C48.3961 13.3343 47.7062 13.4027 47.0146 13.4594C46.7693 13.4794 46.5215 13.4752 46.2754 13.4786C46.2295 13.4786 46.1819 13.4702 46.1369 13.4594C45.3335 13.2567 44.6877 12.7211 44.5726 11.8C44.4775 11.0417 44.4833 10.2833 44.5534 9.52577C44.6861 8.09164 44.9614 6.67838 45.1992 5.25927C45.3535 4.33989 45.5137 3.42135 45.6797 2.50364C45.7164 2.30175 45.668 2.15241 45.5045 2.03228C45.4403 1.98556 45.3785 1.93216 45.326 1.87209C45.23 1.76364 45.2275 1.67187 45.336 1.57592C45.4236 1.49834 45.5279 1.42492 45.638 1.38988C45.8532 1.3198 45.9383 1.17213 45.9784 0.966067C46.0076 0.817565 46.0493 0.667395 46.1119 0.529739C46.2011 0.332849 46.3196 0.270278 46.5315 0.310323C46.7267 0.347866 46.9203 0.402094 47.1063 0.471339C47.3733 0.570618 47.4968 0.77752 47.4976 1.06201C47.4976 1.33398 47.5018 1.32814 47.7646 1.36569C48.3327 1.44578 48.8967 1.35985 49.4623 1.33816C49.9896 1.31813 50.516 1.29978 51.0383 1.39572C51.4104 1.46413 51.7182 1.84957 51.7115 2.2275C51.7099 2.34096 51.6548 2.42105 51.5589 2.46527C51.488 2.4978 51.407 2.51616 51.3286 2.5245C50.32 2.62962 49.3105 2.72139 48.2952 2.72556C48.1158 2.72556 47.9348 2.73808 47.7562 2.76227C47.5301 2.79314 47.37 2.89492 47.3107 3.14604C47.0896 4.08043 46.8736 5.01399 46.8052 5.97508C46.796 6.09855 46.8118 6.22286 46.8177 6.3747Z" fill="#475467"/>
<path d="M74.5397 3.0455C74.4146 3.0163 74.2886 2.97375 74.1601 2.9604C73.8172 2.92536 73.481 2.99127 73.149 3.06302C72.4841 3.20568 71.8217 3.16981 71.1634 3.03549C70.627 2.9262 70.2816 2.58831 70.1139 2.07106C70.0897 1.99598 70.0722 1.91589 70.0647 1.83746C70.038 1.54797 70.1823 1.36943 70.4718 1.36359C70.6837 1.35942 70.9006 1.3711 71.1083 1.41198C71.5547 1.49958 71.9994 1.46788 72.444 1.427C73.0347 1.37277 73.6254 1.30853 74.2152 1.24846C74.2619 1.24346 74.3086 1.24262 74.3545 1.23511C74.6457 1.18506 74.7249 1.09996 74.7558 0.804626C74.8034 0.350779 75.1938 0.0712951 75.6368 0.176414C75.7861 0.211454 75.9338 0.251499 76.0815 0.292379C76.3226 0.359121 76.3943 0.450058 76.4085 0.699507C76.4194 0.888054 76.4853 0.963139 76.6863 0.958134C76.9324 0.952294 77.1777 0.915585 77.4238 0.899734C77.8635 0.871369 78.3048 0.829655 78.7403 0.923094C79.3919 1.06325 79.8432 1.43034 80.0293 2.09192C80.0668 2.2254 80.0335 2.31968 79.9242 2.37975C79.8149 2.43981 79.6972 2.49571 79.5771 2.51907C79.442 2.54493 79.2976 2.54577 79.1591 2.53409C78.5126 2.47652 77.866 2.47402 77.2228 2.56412C77.0392 2.58998 76.8574 2.63754 76.6797 2.69177C76.5512 2.73098 76.4886 2.82108 76.4661 2.97041C76.26 4.28691 76.0473 5.60173 75.8254 6.91489C75.7169 7.55811 75.5809 8.19717 75.4658 8.83957C75.4332 9.02227 75.4274 9.21082 75.4157 9.39687C75.3748 10.0418 75.329 10.6867 75.3006 11.3324C75.2881 11.611 75.3215 11.8922 75.3206 12.1717C75.3206 12.2885 75.3014 12.412 75.2589 12.5204C75.1638 12.7649 74.9635 12.8566 74.7083 12.784C74.6131 12.7565 74.5189 12.7165 74.4346 12.6647C74.0917 12.4553 73.8273 12.1692 73.6362 11.8146C73.5111 11.5827 73.5136 11.3249 73.4902 11.0746C73.4126 10.2403 73.4744 9.41021 73.5862 8.58261C73.7513 7.36039 74.04 6.1607 74.2611 4.94932C74.3687 4.36032 74.4471 3.76548 74.5381 3.17314C74.5431 3.14144 74.5381 3.10807 74.5381 3.04717L74.5397 3.0455Z" fill="#475467"/>
<path d="M97.6099 0.759673C98.3299 0.759673 99.0507 0.747993 99.7707 0.765513C100.054 0.772187 100.338 0.837261 100.62 0.884815C100.807 0.916518 100.945 1.02831 101.053 1.18265C101.176 1.35869 101.279 1.5439 101.326 1.7558C101.385 2.02945 101.296 2.15793 101.016 2.19797C100.99 2.20214 100.963 2.20381 100.936 2.20464C100.416 2.23134 99.8975 2.27055 99.3777 2.28056C98.6911 2.29308 98.0028 2.28724 97.3162 2.2789C96.8966 2.27306 96.7272 2.38485 96.6355 2.81951C96.4753 3.57537 96.3059 4.33039 96.2467 5.10293C96.2367 5.23475 96.2342 5.3699 96.2492 5.50088C96.27 5.68359 96.2976 5.71029 96.4778 5.70111C96.864 5.68109 97.2512 5.6619 97.6341 5.61768C98.2164 5.5501 98.7962 5.4575 99.3777 5.38241C99.6847 5.3432 99.9901 5.37991 100.292 5.44332C100.554 5.49838 100.774 5.6327 100.973 5.80456C101.003 5.83042 101.031 5.85962 101.055 5.89132C101.187 6.05735 101.174 6.20001 100.997 6.3143C100.887 6.38522 100.762 6.44445 100.636 6.47949C100.366 6.55374 100.094 6.61798 99.8182 6.66804C99.2217 6.77649 98.6244 6.88579 98.0245 6.97255C97.4964 7.04847 96.9658 7.10437 96.4344 7.14858C96.195 7.16861 96.0373 7.28374 95.9614 7.4873C95.8596 7.76011 95.7636 8.04126 95.7144 8.32742C95.5476 9.30603 95.4041 10.2871 95.334 11.2791C95.3031 11.7171 95.2447 12.1543 95.178 12.5881C95.1246 12.9368 95.0587 12.9844 94.7083 13.0561C94.0091 13.1988 93.2708 12.5614 93.461 11.7997C93.6245 11.1456 93.6963 10.4757 93.7831 9.80827C93.9099 8.83049 94.0083 7.84854 94.2594 6.89163C94.2811 6.80987 94.2744 6.73895 94.2294 6.66387C94.1752 6.57293 94.1309 6.47532 94.0884 6.37771C94.03 6.24256 94.0375 6.10657 94.1568 6.01313C94.4246 5.80206 94.4972 5.52674 94.5314 5.19637C94.614 4.39463 94.7425 3.59873 94.8501 2.79949C94.8718 2.64097 94.8893 2.48163 94.8985 2.32228C94.9093 2.13707 94.8493 2.06031 94.6641 2.04279C94.4371 2.02194 94.2603 1.90931 94.1042 1.76164C93.914 1.58144 93.9157 1.36703 94.1042 1.18516C94.322 0.975752 94.594 0.893992 94.8885 0.882312C95.7286 0.848941 96.5687 0.820576 97.408 0.790542C97.4747 0.788039 97.5415 0.790542 97.6082 0.790542V0.759673H97.6099Z" fill="#475467"/>
<path d="M37.7163 2.70005C37.5211 2.70005 37.3551 2.69672 37.1891 2.70005C36.4424 2.71841 35.6957 2.74928 34.949 2.75178C34.7063 2.75178 34.4585 2.70005 34.2224 2.63832C33.912 2.55739 33.7051 2.34549 33.5983 2.04097C33.5566 1.92167 33.5166 1.80154 33.4807 1.68057C33.4148 1.45531 33.4423 1.3894 33.6601 1.28679C33.9713 1.13995 34.2983 1.05068 34.6462 1.06987C35.1726 1.09991 35.6974 1.15247 36.2238 1.16498C36.7094 1.17666 37.1966 1.15831 37.683 1.13662C38.5022 1.10074 39.3207 1.03483 40.1408 1.01231C40.7598 0.995622 41.3805 1.02065 42.0004 1.03984C42.1714 1.04484 42.3458 1.07988 42.5101 1.12994C43.0207 1.28428 43.3769 1.75648 43.3769 2.25622C43.3769 2.5624 43.2551 2.69588 42.9456 2.7109C42.7662 2.71924 42.5852 2.70339 42.4058 2.7084C41.846 2.72341 41.2862 2.75011 40.7256 2.75762C40.4194 2.76179 40.1132 2.73259 39.807 2.72592C39.6952 2.72341 39.5826 2.7401 39.4558 2.74928C39.3991 3.10218 39.339 3.44256 39.2906 3.78462C39.0946 5.19038 38.9602 6.60281 38.8376 8.01691C38.7642 8.85954 38.6566 9.69966 38.584 10.5423C38.5523 10.906 38.5731 11.2739 38.5656 11.6402C38.5623 11.7929 38.5615 11.948 38.5314 12.0965C38.478 12.3635 38.3078 12.462 38.0434 12.3894C37.9541 12.3652 37.8673 12.3243 37.7873 12.2784C37.4994 12.1132 37.2617 11.893 37.0656 11.6252C36.9563 11.4758 36.8921 11.3081 36.8846 11.1246C36.8779 10.9519 36.8654 10.7742 36.8962 10.6065C36.9872 10.1193 37.0014 9.62707 37.0356 9.13485C37.1056 8.12454 37.1665 7.11339 37.255 6.10391C37.3451 5.07525 37.4452 4.04741 37.6454 3.0321C37.6646 2.93449 37.6863 2.83688 37.7147 2.69755L37.7163 2.70005Z" fill="#475467"/>
<path d="M106.135 6.68693C106.783 6.67275 107.403 6.65689 108.022 6.64521C108.329 6.63938 108.636 6.64188 108.942 6.63771C109.155 6.6352 109.35 6.69444 109.532 6.80122C109.636 6.86213 109.743 6.91802 109.837 6.99227C109.918 7.05735 110.001 7.1341 110.049 7.22337C110.198 7.49618 110.089 7.74229 109.783 7.79068C109.515 7.83406 109.239 7.85826 108.967 7.84908C108.431 7.82989 107.902 7.89163 107.371 7.93501C107.124 7.95503 106.878 7.97422 106.633 7.99675C106.561 8.00342 106.488 8.01927 106.417 8.03596C106.196 8.09019 106.044 8.22701 106.003 8.44893C105.96 8.68336 105.944 8.92363 105.922 9.16223C105.852 9.93811 105.793 10.7157 105.713 11.4907C105.674 11.8686 105.59 12.2424 105.433 12.5903C105.354 12.7638 105.254 12.9348 105.131 13.08C104.955 13.2877 104.721 13.3353 104.46 13.2402C104.322 13.1901 104.179 13.1551 104.04 13.1084C103.896 13.06 103.795 12.9791 103.808 12.8047C103.817 12.6929 103.782 12.5711 103.812 12.4676C103.942 12.0271 103.949 11.5733 103.988 11.1228C104.089 9.90141 104.178 8.67835 104.284 7.45697C104.341 6.80039 104.428 6.14632 104.496 5.48974C104.57 4.76725 104.64 4.04477 104.705 3.32145C104.716 3.19714 104.701 3.06866 104.688 2.94352C104.672 2.77166 104.574 2.6657 104.404 2.62566C104.194 2.57727 104.027 2.46798 103.905 2.28611C103.807 2.13927 103.796 1.99911 103.868 1.8356C103.979 1.58615 104.154 1.44098 104.431 1.4268C104.563 1.42013 104.698 1.39343 104.829 1.40594C105.272 1.44932 105.707 1.39176 106.145 1.34921C107.076 1.25911 108.009 1.23825 108.943 1.29999C109.175 1.31501 109.415 1.29832 109.631 1.40094C109.829 1.49438 110.027 1.59282 110.207 1.71629C110.45 1.88232 110.516 2.14094 110.498 2.42126C110.487 2.58978 110.436 2.64735 110.27 2.67321C110.125 2.69574 109.979 2.71326 109.833 2.71659C109.412 2.72661 108.992 2.72994 108.572 2.73245C108.139 2.73495 107.705 2.73245 107.272 2.73328C107.225 2.73328 107.179 2.73495 107.132 2.73912C106.699 2.7775 106.491 2.96855 106.445 3.4007C106.338 4.401 106.238 5.4013 106.139 6.40244C106.129 6.50005 106.138 6.59933 106.138 6.68609L106.135 6.68693Z" fill="#475467"/>
<path d="M31.2095 3.0891C31.2112 3.88333 31.1578 4.67256 31.0635 5.46095C31.0026 5.96986 30.976 6.48294 30.9242 6.99269C30.8558 7.66178 30.7782 8.33004 30.7048 8.99829C30.6289 9.69325 30.5471 10.3882 30.4821 11.084C30.4412 11.5212 30.432 11.9617 30.4003 12.3996C30.3903 12.5381 30.3611 12.6766 30.3227 12.8101C30.2777 12.9686 30.2159 13.0153 30.0599 12.9903C29.7979 12.9478 29.526 12.9169 29.2807 12.8226C28.9562 12.6967 28.771 12.4247 28.7201 12.0768C28.7017 11.9525 28.7 11.824 28.7067 11.698C28.7301 11.2325 28.7576 10.767 28.7893 10.3023C28.8677 9.17266 28.9653 8.04471 29.0997 6.9201C29.1714 6.31859 29.1948 5.71207 29.2348 5.10638C29.2765 4.47483 29.3232 3.84328 29.3441 3.2109C29.3616 2.6853 29.3549 2.15887 29.3408 1.63328C29.3308 1.26202 29.4826 1.0643 29.8572 1.04595C30.2251 1.02843 30.5697 1.12687 30.89 1.30624C31.0802 1.41303 31.1854 1.58322 31.1987 1.79263C31.2204 2.13051 31.2204 2.47006 31.2262 2.80878C31.2279 2.90138 31.2162 2.99482 31.2104 3.08826L31.2095 3.0891Z" fill="#475467"/>
</g>
<defs>
<clipPath id="clip0_12112_220">
<rect width="111" height="18.8013" fill="white"/>
</clipPath>
</defs>
</svg>
